P1
# Created by GIMP version 2.10.8 PNM plug-in
60 60
0111111111111111100000111111111111111111111111111111111111110111111111
1111111000001111111111111111111111111111111111111101111111111111110000
0011111111111111111111111111111111111111011111111111111100000111111111
1111111111111111111111111111110111111111000000000000111111111111111111
1111111111111111111101111111000000000000000111111111111111111111111111
1111111111011111100000000000000001111111111111111111111111111111111111
0111111000011100000000001111111111111111111111111111111111110111111000
1111100000000011111111111111111111111111111111111101111110001111100000
0000111111111111111111111111111111111111011110000011111000000000111111
1111111111111111111111111111110000000000011100000000001111111111111111
1111111111111111111100000000000000000000000011111111111111111111111111
1111111111000000000000000000000000111111111111111111111111111111111111
0000000000000000000000000000000000001111111111111111111111110000000000
0000000000000000000000000001111111111111111111111111111110000000000000
0000000000000000000011111111111111111111111111111000000000000000000000
0000000000000111111111111111111111111111000000000000000000000000000000
0000001111111111111111111111111000000000000000000000000000000000000001
1110001111111111111110000000000000000000000000000000000000000100000111
1111111111000000000000000000000000000000000000000000000000111111111110
0000000000000000000000000000000000000000000010000111111111000000000000
0000000000000000000000000000000001000000111111110000000000000000000000
0000000000000000000000110000001111111100000000000000000000000000000000
0000000000000100000011111111000000000000000000000000000000000000000000
0001000001111111110000000000000000000000000000000000000000000001100011
1111111100000000000000000000000000000000000000000000011111111111111100
0000000000000000000000000000000000000000000111111111111111000000000000
0000000000000000000000000000000001111111111111111000000000000000000000
0000000000000000000000011111111111111111000000000000000000000000000000
0000000000000111111111111111110000000000000000000000000000000000000000
0001111111111111111110000000000000000000000000000000000000000001111111
1111111111110000000000000000000000000000000000000000001111111111111111
1110000000000000000000000000000000000000000011111111111111111111000000
0000000000000000000000000000000001111111111111111111110000000000000000
0000000000000000000000011111111111111111111000000000000000000000000000
0000000000000011111111111111111110000011000000000000000000000000000000
0000111111111111111111100000111110000011111111110000011111000000111111
1111111111110000001111100000111111111100000111111000001111111111111111
1100000011111000001111111111000001111110000011111111111111111100000111
1110000011111111110000011111100000011111111111111110000001111110000011
1111111100000111111000000111111111111111100000011111100000111111111100
0001111110000001111111111111111000001111111000001111111110000001111111
0000011111111111111100000011111110000011111111100000011111110000001111
1111111111000000111111100000111111111000001111111100000011111111111111
0000011111111000001111111110000011111111100000011111111111110000011111
1110000011111111100000111111111000000111111111111000000111111110000011
1111111000001111111110000001111111111110000001111111000000111111111000
0011111111110000001111111111000000111111110000001111111110000011111111
1100000001111111100000001111111100000011111111100000111111111110000001
1111111000000111111111000001111111111000001111111111100000001111110000
0011111111110000011111111110000011111111111100000011111000000011111111
1100000111111111100000111111111111100000111100000001111111111100000111
111111100000011111111111100000