P1
# Created by GIMP version 2.10.8 PNM plug-in
60 60
0000000000000000000000111111111111111111111111111111111111110000000000
0000000000000000111111111111111111111111111111111100000000000000000000
0000000001111111111111111111111111111111000000000000000000000000000000
0111111111111111111111111111110000000000000000000000000000000001111111
1111111111111111111100000000000000000000000000000000000111111111111111
1111111111000000000000000000000000000000000000001111111111111111111111
0000000000000000000000000000000000000000011111111111111111110011111111
1111000000000000000000000000000011111111111111111111111111111111111111
0000000000000000000000011111111111111111111111111111111111111110000000
0000000000000011111111111111111111111111111111111111111110000000000000
0000011111111111111111111111111111111111111111111100000000000000001111
1111111111111111111111111111111111111111100000000000000001111111111111
1111111111111111111111111111111100000000000000000111111111111111111111
1111111111111111111111110000000000000000111111111111111111111111111111
1111111111111111000000000000001111111111111111111111111111111111111111
1111110000000000000001111111111111111111111111111111111111111111111000
0000000000001111111111111111111111111111111111111111111111000000000000
0011111111111111111111111111111111111111111111111000000000000001111111
1111111111111111111111111111111111111111000000000000011111111111111111
1111111111111111111111111111111100000000000111111111111111111111111111
1111111111111111111111100000000000111111111111111111111100000000000001
1111111111111000000000000111111111111111111000000000000000000000011111
1111000000000001111111111111111000000000000000000000000000011111000000
0000011111111111111100000000000000000000000000000001110000000000011111
1111111110000000000000000000000000000000001110000000000111111111111110
0000000000000000000000000000000000100000000001111111111111000000000000
0000000000000000000000000000000000011111111111110000000000000000000000
0000000000000000000000001111111111111100000000011111111111100000000000
0000000000000111111111111110000000000111111111111110000000000000000000
0001111111111111100000000011111111111111111000000000000000000011111111
1111111000000000111111111111111111111000000000000000111111111111111000
0000001111111111111111111111000000000000001111111111111110000000011111
1111111111111111111000000000000001111111111111100000000111111111111111
1111111100000000000000001111111111111000000001111111111111111111110000
0000000000000011111111111111000000001111111111111111110000000000000000
0000011111111111110000000001111111111111111000000000000000000000001111
1111111100000000011111111111111100000000000000000000000011111111111110
0000000011111111111100000000000000000000000000011111111111100000000011
1111111100000000000000000000000000000011111111111000000000011111000000
0000000000000001100000000000111111111111000000000000000000000000000000
0001111000000000001111111111111000000000000000000000000000000111111100
0000000011111111111110000000000000000000000000000011111111000000000001
1111111111110000000000000000000000000011111111111000000000011111111111
1110000000000000000000000011111111111110000000000111111111111111000000
0000000000000011111111111111110000000000111111111111111100000000000000
0111111111111111111100000000001111111111111111100000000001111111111111
1111111111100000000011111111111111111111111111111111111111111111111111
1000000000111111111111111111111111111111111111111111111111111100000000
1111111111111111111111111111111111111111111111111111000000001111111111
1111111111111111111111111111111111111111110000000011111111111111111111
1111111111111111111111111111111110000000111111111111111111111111111111
111111111111111111111110000000